<?xml version="1.0" encoding="UTF-8"?>
<svg id="Layer_1" data-name="Layer 1" xmlns="http://www.w3.org/2000/svg" version="1.1" viewBox="0 0 77.4 64.8">
  <defs>
    <style>
      .cls-1 {
        fill: #101233;
        stroke-width: 0px;
      }
    </style>
  </defs>
  <path class="cls-1" d="M64.2,42.6v3.3s-32.5.3-32.5.3h0c-.3,0-.6,0-.8,0h-.5c-2.9,0-5.6-.7-8-2-3.6-2.1-6.4-5.6-7.6-10-.9-3.5-.5-7.1.8-10.2,0,0,0,0,0,0,2.4-5.8,8.1-9.9,14.7-10,1.1,0,2.2,0,3.2.3,0,0,0,0,.1,0,.4,0,.8.2,1.2.3.2,0,.5.1.7.2.2,0,.3.1.5.2,1.7.6,3.3,1.6,4.7,2.8h0c3.5,2.9,5.8,7.2,5.8,12.2,0,5.4-2.6,10.2-6.6,13.2h13.4c2.2-4,3.4-8.5,3.4-13.3-.1-12.5-9-22.9-20.8-25.4,0,0,0,0,0,0-.4,0-.8-.1-1.2-.2-3.5-.6-7.1-.5-10.7.5C9.9,8.4,1.4,22.7,5,36.8c1,4,3,7.6,5.5,10.6,0,0,0,0,0,0,2,2.2,4.3,4.1,6.9,5.6.2,0,.3.2.5.2.1,0,.3.1.4.2.2.1.4.2.6.3h0c3.5,1.7,7.5,2.6,11.6,2.6h0l33.8-.4v3.3s10-8.4,10-8.4l-10.2-8.2h0Z"/>
</svg>